<?xml version="1.0" encoding="utf-8"?>
<!-- Generator: Adobe Illustrator 16.2.1, SVG Export Plug-In . SVG Version: 6.00 Build 0)  -->
<!DOCTYPE svg PUBLIC "-//W3C//DTD SVG 1.1//EN" "http://www.w3.org/Graphics/SVG/1.1/DTD/svg11.dtd">
<svg version="1.1" id="Layer_1" xmlns="http://www.w3.org/2000/svg" xmlns:xlink="http://www.w3.org/1999/xlink" x="0px" y="0px"
	 width="395.3px" height="112.5px" viewBox="0 0 395.3 112.5" style="enable-background:new 0 0 395.3 112.5;" xml:space="preserve"
	>
<style type="text/css">
<![CDATA[
	.st0{fill:#FFFFFF;}
]]>
</style>
<g>
	<g>
		<path class="st0" d="M364.6,79c-1.9-14.9-5.4-22.1-16-23.5c-1.8,0-6.1,0-7.5,0c0,2.8,0,38,0,50.3c5.6,0,7,0,12.6,0
			c14.6-0.9,31.8-12.2,35.2-36c0,12,0,24.3,0,37.1l-75,0l0-1.2l11.1,0c0-33.8,0-65.1,0-98.3l-8.9,0c0,26.8,0,48.8,0,76.7
			c-0.6,8.2-4,12.9-7.5,17.4c-4.6,5.3-10,6.7-12.7,7.4c-15.7,3.5-33.6,0.2-41.5-11.6c-2.1-3.7-3.3-5.7-3.5-18.2l0-71.6l-9.3,0l0-1.2
			c11.9,0,22.6,0,34.8,0l0,1.2l-9.4,0l0,85.2c-0.2,4.5,2.9,10.2,11,14.8c4.5,2,11.8,1.5,16.1,0.7c3.3-0.4,5.4-1.4,8.3-2.8
			c5.7-2.8,12.8-13.6,12.7-21.1c0-29,0-76.8,0-76.8l-12,0c0-1.3,0-0.1,0-1.2l81.7,0l0,33.6c-0.9-4.1-1.6-10.5-5.1-16.8
			c-5.9-11.5-13.2-16-26.1-15.6l-12.3,0l0,46.8c1.4,0,5.9,0,7.5,0c10.8-1,14.2-6.7,15.9-20.3L364.6,79z"/>
		<path class="st0" d="M284,110.5c-13.3,0-24.1-4.7-29.7-13l-0.1-0.2c-2-3.6-3.3-5.8-3.4-18.1l0-71.4l-9.3,0l0-1.7l0.3,0
			c11.9,0,22.6,0,34.8,0h0.3l0,1.7l-9.4,0l0,84.9c-0.3,5.1,3.8,10.5,10.8,14.5c2,0.9,4.9,1.4,8.3,1.4c3.4,0,6.2-0.4,7.7-0.7
			c3.2-0.4,5.2-1.3,8.2-2.7c5.6-2.8,12.7-13.4,12.6-20.9c0-27.8,0-72.8,0-76.5l-12,0l0-0.2c0-0.5,0-0.7,0-0.8c0-0.1,0-0.2,0-0.4
			l0-0.3l82.2,0l0,36.1l-0.5-2.2c-0.2-0.8-0.4-1.7-0.5-2.6c-0.8-4-1.7-9-4.5-14.1C373.6,12.1,366.8,7.7,355,7.7c-0.5,0-1,0-1.5,0
			l-12.1,0l0,46.3l1.5,0c1.9,0,4.6,0,5.8,0c10.1-1,13.9-5.8,15.7-20.1l0.5,0l0,45l-0.5,0c-1.8-14-4.9-21.9-15.8-23.3l-7.2,0
			c0,1.6,0,7.8,0,15.3c0,11.8,0,27,0,34.5l2.4,0l5.6,0c1.2,0,2.5,0,4.3,0c15-0.9,31.6-12.4,35-35.7l0.5,0c0,7.3,0,14.7,0,22.3
			c0,4.9,0,9.8,0,14.9v0.2h-0.2l-75.3,0l0-1.7l11.1,0c0-16.9,0-33.1,0-49.3c0-16.1,0-32.1,0-48.5l-8.4,0c0,25.9,0,48,0,76.4
			c-0.6,8.1-3.9,12.9-7.6,17.5c-4.7,5.4-10.2,6.8-12.8,7.5C292,110.1,288,110.5,284,110.5z M241.9,7.2l9.3,0l0,71.9
			c0.2,12.2,1.4,14.3,3.4,17.9l0.1,0.2c5.5,8.1,16.2,12.8,29.3,12.8c4,0,8-0.4,11.9-1.3c2.6-0.7,8-2,12.5-7.3
			c3.6-4.5,6.9-9.3,7.4-17.2c0-28.5,0-50.7,0-76.7V7.2l9.4,0v0.2c0,16.6,0,32.6,0,48.8c0,16.2,0,32.6,0,49.5v0.2l-11.1,0l0,0.7
			l74.5,0c0-5,0-9.8,0-14.6c0-6.5,0-13,0-19.3c-4.3,21.7-20.4,32.3-34.9,33.2c-1.8,0-3.1,0-4.3,0l-5.6,0l-2.9,0v-0.2
			c0-7.3,0-22.8,0-34.7c0-8.1,0-14.5,0-15.6l0-0.2l7.7,0c10.2,1.3,13.8,8.4,15.7,20.3l0-38c-1.7,10.5-5.1,16.1-15.6,17.1
			c-1.2,0-3.9,0-5.9,0l-1.9,0l0-0.2l0-47.1l12.6,0c0.5,0,1,0,1.5,0c11.9,0,19.1,4.6,24.8,15.8c2.8,5.1,3.8,10.1,4.6,14.2
			c0,0.1,0,0.1,0,0.2l0-30.8l-81.2,0c0,0.2,0,0.3,0,0.4c0,0.1,0,0.2,0,0.3l12,0v0.3c0,0,0,47.7,0,76.8c0.1,7.7-7.1,18.5-12.8,21.3
			c-3,1.5-5.1,2.4-8.3,2.8c-1.4,0.3-4.3,0.7-7.7,0.7c-3.5,0-6.4-0.5-8.5-1.4c-7.2-4.1-11.4-9.7-11.1-15l0-85.4l9.4,0l0-0.7
			c-12,0-22.5,0-34.3,0L241.9,7.2z"/>
	</g>
	<g>
		<path class="st0" d="M247.5,66.6c-2.4,0-4.1,0-6,0c0,11.8,0,26.5,0,39.7c-2.4-4.2-5.2-6.5-11.2-4.7c-8.5,4.1-18.7,8.3-24.5,8.1
			c-6.2,0.2-12.3-2-18-4.8c-20-13.5-27.4-38.7-22.2-63c3.8-15.5,14.8-32.7,31.1-37.9c16.3-5.9,27.3,11.1,38.4-0.9
			c0,8.6,0,32.8,0,36.3v1.2c-3.7-13.5-9.9-31-25.3-36.2c-9.3-2-17.6,2.2-21.5,9.3c-8.4,18.4-8.9,66.5,1.6,86.3
			c1.3,3,7.1,8.8,15.9,8.4c8.8-0.4,19.6-5.9,19.6-13.9c0-9.7,0-17.6,0-27.9c-1.6,0-5.2,0-6,0c0-0.6,0-0.5,0-1.2l28.1,0L247.5,66.6z"
			/>
		<path class="st0" d="M205.2,109.9c-5.1,0-10.8-1.6-17.5-4.8c-9.7-6.5-16.8-16-20.7-27.6c-3.7-11-4.3-23.4-1.6-35.7
			c3.7-15.2,14.8-32.8,31.3-38.1c2.4-0.9,4.8-1.3,7.4-1.3c4.5,0,8.5,1.3,12.4,2.6c3.3,1.1,6.5,2.2,9.5,2.2c3.4,0,6.3-1.4,9-4.3
			l0.4-0.5l0,0.6c0,8.6,0,32.8,0,36.3v3.1l-0.5-1.8c-7.4-26.9-17.3-33.4-25.1-36c-1.5-0.3-3-0.5-4.5-0.5c-7.1,0-13.4,3.6-16.7,9.7
			c-4,8.8-6.4,25-6.2,42.5c0.1,18.5,3,34.4,7.8,43.6c1.2,2.7,6.8,8.7,15.6,8.3c9.2-0.4,19.4-6.1,19.4-13.7c0-9.3,0-17.2,0-27.7
			c-1.7,0-5,0-5.8,0l-0.2,0l0-0.2c0-0.2,0-0.4,0-0.5c0-0.2,0-0.3,0-0.7l0-0.2l28.6,0l0,1.7l-0.2,0c-1.4,0-2.5,0-3.6,0
			c-0.7,0-1.4,0-2.2,0c0,11.7,0,26.3,0,39.4v0.9l-0.5-0.8c-1.6-2.7-3.5-5.2-7.3-5.2c-1.1,0-2.3,0.2-3.6,0.6
			c-11.5,5.5-19.8,8.2-24.5,8.1C205.6,109.9,205.4,109.9,205.2,109.9z M204.1,3c-2.5,0-4.9,0.4-7.2,1.3c-16.3,5.2-27.3,22.7-31,37.7
			c-2.6,12.2-2,24.4,1.6,35.4c3.8,11.4,10.9,20.9,20.4,27.3c6.8,3.3,12.6,4.9,17.9,4.7c0.1,0,0.2,0,0.3,0c4.7,0,13-2.8,24.1-8.1
			c1.4-0.4,2.7-0.6,3.8-0.6c3.7,0,5.7,2.2,7.3,4.7c0-13,0-27.3,0-38.8v-0.3l0.3,0c0.8,0,1.6,0,2.4,0c1,0,2.1,0,3.3,0l0-0.7l-27.6,0
			c0,0.2,0,0.3,0,0.4c0,0.1,0,0.2,0,0.3c1.1,0,4.3,0,5.8,0h0.2l0,0.2c0,10.6,0,18.6,0,27.9c0,7.8-10.5,13.7-19.9,14.2
			c-0.3,0-0.6,0-0.9,0c-8.7,0-14-5.8-15.2-8.6c-10.6-20.1-10-68-1.6-86.5c3.4-6.2,9.8-9.9,17.1-9.9c1.5,0,3.1,0.2,4.7,0.5
			c14.5,4.9,21,20.8,25,34.6c0-4.9,0-26.4,0-35c-2.7,2.7-5.6,4-8.9,4c-3.1,0-6.3-1.1-9.6-2.2C212.5,4.3,208.5,3,204.1,3z"/>
	</g>
	<g>
		<path class="st0" d="M131.6,10.8c-4.8-5.2-14.9-6.9-22.9-3.8c-14.4,7.5-15.5,26.8-16.7,43c-0.9,11-1.2,39.6,10.6,54.5
			c4.8,4.8,14.2,5.5,20.1,3.7c17.8-6.6,18.5-26.9,19.8-43.6l0-0.4C143.5,45.6,141.4,22.7,131.6,10.8 M138.8,102.9
			c-8.7,5.9-19.5,9.1-30.7,6.6c-14.1-3-26.9-16.2-31.6-29.7c-6.1-19.9-3.8-44.8,9.8-60.5C97,8.7,110,1.9,125.4,5.2
			c14,3,28.5,17.3,32.3,31.1C165.7,60.2,159.3,87.4,138.8,102.9"/>
		<path class="st0" d="M115.9,110.5c-2.7,0-5.3-0.3-7.9-0.9c-13.4-2.8-26.8-15.4-31.8-29.8c-5.6-18.1-4.7-43.9,9.9-60.7
			c10.1-10,20.7-15.1,31.5-15.1c2.6,0,5.2,0.3,7.9,0.9c13.8,3,28.7,17.3,32.5,31.2c8.3,25.2,0.6,52-19.1,66.9
			C131.8,108,123.8,110.5,115.9,110.5z M117.6,4.6c-10.7,0-21.2,5-31.2,14.9C72,36.1,71.1,61.7,76.7,79.7
			c5,14.3,18.2,26.7,31.5,29.5c10.2,2.3,21.1-0.1,30.5-6.5c19.5-14.7,27.1-41.4,18.9-66.3C153.7,22.5,139,8.4,125.4,5.4
			C122.8,4.9,120.2,4.6,117.6,4.6z M116.1,109.4C116.1,109.4,116.1,109.4,116.1,109.4c-5.8,0-10.8-1.7-13.8-4.7
			c-5.2-6.5-8.6-16.2-10.1-28.8c-1.4-11.6-0.9-21.9-0.6-25.8l0.1-1.4c1.3-16.1,2.7-34.4,16.8-41.7c2.7-1,5.7-1.6,8.7-1.6
			c6,0,11.4,2,14.5,5.4c11.6,14.1,11.5,42.2,11,53.6l0,0.4l-0.2,2.2c-1.2,16.5-2.6,35.3-19.8,41.6
			C120.8,109,118.5,109.4,116.1,109.4z M117.3,5.8c-3,0-5.9,0.5-8.5,1.5C95,14.5,93.5,32.6,92.3,48.6L92.2,50
			c-0.3,3.9-0.9,14.2,0.6,25.7c1.6,12.6,4.9,22.2,10,28.6c2.8,2.8,7.9,4.5,13.4,4.5c0,0,0,0,0,0c2.3,0,4.6-0.3,6.5-0.9
			c16.9-6.2,18.3-24.8,19.5-41.2l0.2-2.5c0.6-11.4,0.7-39.3-10.8-53.2C128.4,7.7,123.1,5.8,117.3,5.8z"/>
	</g>
	<g>
		<path class="st0" d="M91,7.5c-0.3,0.1-8.7,0-9.8,0C70.8,40.4,59.8,75.1,49.4,107.7c-2.2-5.2-4.1-10.1-6.2-15.8L11.7,7.5
			c-3.6,0-4.5,0-7.3,0l0-1.1l32.3,0l0,1.2l-7.7,0l26.9,72.7l0.5,1.4c7.7-24.1,15.8-49.4,23.7-74.1c-3.6,0-7.5,0-10.7,0l0-1.2l21.6,0
			L91,7.5z"/>
		<path class="st0" d="M49.4,108.5l-0.3-0.6c-2.1-5-3.9-9.8-6.2-15.9L11.6,7.7l-2.2,0c-1.8,0-2.9,0-4.9,0l-0.2,0l0-1.6l32.8-0.1
			l0,1.7l-7.5,0l26.8,72.4l0.2,0.7C64,57,72,32.1,79.7,7.7c-2.9,0-6,0-8.7,0l-1.9,0l0-1.7l22.1,0l0,1.6L91,7.7c-0.1,0-0.2,0-2.6,0
			c-1,0-2.2,0-3.3,0c-1.6,0-3.2,0-3.8,0C70.7,41.3,59.4,77,49.6,107.8L49.4,108.5z M11.9,7.2L12,7.4l31.5,84.4
			c2.1,5.8,3.9,10.4,5.9,15.2c9.8-30.7,21-66.2,31.5-99.6L81,7.2l0.2,0c0.5,0,2.1,0,4,0c1.1,0,2.3,0,3.3,0c1.3,0,2,0,2.3,0l0-0.7
			l-21.1,0l0,0.7l1.4,0c2.9,0,6.1,0,9.1,0l0.3,0l-0.1,0.3c-7.9,24.7-16,50-23.7,74.1l-0.2,0.7l-0.7-2.1l-27-73.1l7.8,0l0-0.7
			l-31.8,0l0,0.6c1.9,0,2.9,0,4.7,0L11.9,7.2z"/>
	</g>
</g>
</svg>
